# xmcd CD database file
# Copyright (C) 1995 Ti Kan
#
# Track frame offsets:
#	182
#	21875
#	38802
#	51165
#	72912
#	92172
#	114457
#	141292
#	161882
#	174035
#	184580
#	196570
#
# Disc length: 2751 seconds
#
# Revision: 1
# Processed by: cddbd v1.4b41PL1 Copyright (c) Steve Scherf et al.
# Submitted via: NotifyCDPlayer(CDDB) 1.07
#
DISCID=9a0abd0c
DTITLE=Lightnin' Hopkins - Mama and Papa Hopkins
DYEAR=1900
DGENRE=
TTITLE0=Mama and Papa Hopkins
TTITLE1=Short Haired Woman
TTITLE2=Shaggy Dog
TTITLE3=Grandma Told Grandpa
TTITLE4=In The Evening, The Sun Is Going Down
TTITLE5=That Gambling Life
TTITLE6=Hurricane Betsy
TTITLE7=Woke Up This Morning
TTITLE8=Shining On Moon
TTITLE9=My Little Kewpie Doll
TTITLE10=Don't Think 'Cause You're Pretty
TTITLE11=Hopkins' Sky Hop
EXTD=
EXTT0=
EXTT1=
EXTT2=
EXTT3=
EXTT4=
EXTT5=
EXTT6=
EXTT7=
EXTT8=
EXTT9=
EXTT10=
EXTT11=
PLAYORDER=
